<svg width="auto" height="100px" class="my-2" viewBox="0 0 132 97" fill="none" xmlns="http://www.w3.org/2000/svg">
                    <path d="M119.755 0.789917H12.9419C6.18598 0.798829 0.711782 6.27991 0.702881 13.0444V84.3429C0.711782 91.1074 6.18598 96.5884 12.9419 96.5974H119.755C126.511 96.5884 131.986 91.1074 131.995 84.3429V13.0444C131.986 6.27991 126.511 0.798829 119.755 0.789917ZM12.9419 7.47416H119.755C122.826 7.47861 125.314 9.96961 125.319 13.0444V18.6146H7.37873V13.0444C7.38318 9.96961 9.87104 7.47861 12.9419 7.47416ZM119.755 89.9131H12.9419C9.87104 89.9087 7.38318 87.4177 7.37873 84.3429V25.2988H125.319V84.3429C125.314 87.4177 122.826 89.9087 119.755 89.9131ZM38.0654 55.9483C44.5409 55.9483 49.7926 50.69 49.7926 44.2063C49.7926 37.7226 44.5409 32.4643 38.0654 32.4643C31.5898 32.4643 26.3381 37.7226 26.3381 44.2063C26.3426 50.69 31.5898 55.9394 38.0654 55.9483ZM38.0654 39.1485C40.8559 39.1485 43.1168 41.4123 43.1168 44.2063C43.1168 47.0003 40.8559 49.264 38.0654 49.264C35.2749 49.264 33.014 47.0003 33.014 44.2063C33.0184 41.4123 35.2749 39.153 38.0654 39.1485ZM38.0654 61.2199C28.4967 61.26 20.499 67.9487 18.4384 76.9056L18.4117 77.0437C18.3627 77.2576 18.336 77.5027 18.336 77.7567C18.336 79.6016 19.8314 81.0988 21.6739 81.0988C23.2628 81.0988 24.5935 79.9848 24.9273 78.492L24.9318 78.4697C26.307 72.3826 31.661 67.9041 38.0654 67.9041C44.4697 67.9041 49.8238 72.3826 51.1812 78.3806L51.199 78.4697C51.5417 79.9759 52.868 81.0854 54.4568 81.0854C56.2993 81.0854 57.7947 79.5882 57.7947 77.7433C57.7947 77.4938 57.768 77.2532 57.7146 77.017L57.7191 77.0393C55.6318 67.9442 47.6385 61.26 38.0743 61.2154H38.0698L38.0654 61.2199ZM110.854 36.4392H75.2498C73.4073 36.4392 71.9119 37.9365 71.9119 39.7813C71.9119 41.6262 73.4073 43.1234 75.2498 43.1234H110.854C112.697 43.1234 114.192 41.6262 114.192 39.7813C114.192 37.9365 112.697 36.4392 110.854 36.4392ZM110.854 54.2638H75.2498C73.4073 54.2638 71.9119 55.7611 71.9119 57.606C71.9119 59.4508 73.4073 60.9481 75.2498 60.9481H110.854C112.697 60.9481 114.192 59.4508 114.192 57.606C114.192 55.7611 112.697 54.2638 110.854 54.2638ZM110.854 72.0885H75.2498C73.4073 72.0885 71.9119 73.5857 71.9119 75.4306C71.9119 77.2754 73.4073 78.7727 75.2498 78.7727H110.854C112.697 78.7727 114.192 77.2754 114.192 75.4306C114.192 73.5857 112.697 72.0885 110.854 72.0885Z" fill="black"/>
                </svg>